<svg width="640" height="420" viewBox="0 0 640 420" xmlns="http://www.w3.org/2000/svg">
  <defs>
    <linearGradient id="a" x1="0" y1="0" x2="1" y2="1">
      <stop offset="0" stop-color="#3b82f6"></stop>
      <stop offset="1" stop-color="#22d3ee"></stop>
    </linearGradient>
    <filter id="shadow" x="-20%" y="-20%" width="140%" height="140%">
      <feDropShadow dx="0" dy="12" stdDeviation="18" flood-color="#000" flood-opacity=".35"></feDropShadow>
    </filter>
  </defs>
  <!-- Browser card -->
  <g transform="translate(60,60)" filter="url(#shadow)">
    <rect x="0" y="0" rx="18" ry="18" width="520" height="300" fill="#0f1834" stroke="#1e2a54"></rect>
    <rect x="0" y="0" rx="18" ry="18" width="520" height="42" fill="#0b1430"></rect>
    <circle cx="22" cy="21" r="5" fill="#ef4444"></circle><circle cx="40" cy="21" r="5" fill="#f59e0b"></circle><circle cx="58" cy="21" r="5" fill="#10b981"></circle>
    <rect x="88" y="12" rx="9" ry="9" width="420" height="18" fill="#0f1834" stroke="#1e2a54"></rect>
    <text x="98" y="26" fill="#a7b1c2" font-family="Inter,Arial" font-size="12">https://your-url-here</text>

    <!-- shield -->
    <g transform="translate(340,110)">
      <path d="M48 0l38 14v28c0 28-18 46-38 55c-20-9-38-27-38-55V14L48 0z" fill="url(#a)"></path>
      <path d="M32 45c0-9 7-16 16-16s16 7 16 16v8h6v18H26v-18h6v-8z" fill="#e6e9ef"></path>
    </g>

    <!-- hook (phishing) crossed -->
    <g transform="translate(120,110)">
      <path d="M0 0h16v120H0z" fill="#1e2a54"></path>
      <path d="M16 60c18 0 24-20 24-28" fill="none" stroke="#1e2a54" stroke-width="6"></path>
      <path d="M-10 20l140 140" stroke="#ef4444" stroke-width="6" stroke-linecap="round"></path>
    </g>

    <!-- verdict chip -->
    <g transform="translate(100,236)">
      <rect x="0" y="0" rx="10" ry="10" width="120" height="28" fill="#0f5132"></rect>
      <text x="16" y="19" fill="#d1fae5" font-family="Inter,Arial" font-size="14" font-weight="800">LEGIT ✓</text>
    </g>
  </g>
</svg>
